<svg id="Layer_1" data-name="Layer 1" xmlns="http://www.w3.org/2000/svg" xmlns:xlink="http://www.w3.org/1999/xlink" viewBox="0 0 122.55 154.74"><defs><style>.cls-1{fill:none;}.cls-2{clip-path:url(#clip-path);}.cls-3{clip-path:url(#clip-path-2);}</style><clipPath id="clip-path" transform="translate(-4.87 23.38)"><rect class="cls-1" x="4.35" y="-1.87" width="65.28" height="154.62"/></clipPath><clipPath id="clip-path-2" transform="translate(-4.87 23.38)"><rect class="cls-1" x="43.61" y="-23.38" width="83.81" height="154.74"/></clipPath></defs><title>MonogramJB</title><g class="cls-2"><path d="M61.08,31.3V94.83a25.27,25.27,0,0,1-2.22,10.53,26.67,26.67,0,0,1-6.13,8.6,29.49,29.49,0,0,1-9.06,5.79,28.76,28.76,0,0,1-11,2.11,28.3,28.3,0,0,1-9.72-1.68,30.41,30.41,0,0,1-8.34-4.54,26.56,26.56,0,0,1-6.26-6.85,24.82,24.82,0,0,1-3.46-8.6l7.69-1.75a18.65,18.65,0,0,0,2.48,6.3,21.52,21.52,0,0,0,4.43,5.11,19.15,19.15,0,0,0,6,3.36,21.42,21.42,0,0,0,7.18,1.18,20.33,20.33,0,0,0,8-1.55,21.74,21.74,0,0,0,6.52-4.18,19.36,19.36,0,0,0,4.43-6.16,18.08,18.08,0,0,0,1.63-7.67V31.3ZM49.34,94.83a14.83,14.83,0,0,1-1.3,6.23,15.52,15.52,0,0,1-3.59,5,17.45,17.45,0,0,1-5.28,3.37,16.65,16.65,0,0,1-6.52,1.24,16.24,16.24,0,0,1-10.76-3.73,15.61,15.61,0,0,1-5.55-9.48l7.57-1.74a7.54,7.54,0,0,0,2.74,5.36,8.88,8.88,0,0,0,6,2.12A8.92,8.92,0,0,0,39,100.81a7.82,7.82,0,0,0,2.54-6V31.3h7.83Z" transform="translate(-4.87 23.38)"/></g><path class="cls-1" d="M43.61-23.38h83.81V131.36H43.61Z" transform="translate(-4.87 23.38)"/><g class="cls-3"><path d="M64.92,28.51H61V97.7H53.29V21H93.07a17.25,17.25,0,0,1,6.45,1.19,17.89,17.89,0,0,1,5.23,3.17,14.71,14.71,0,0,1,3.55,4.68,13.13,13.13,0,0,1,0,11.35,14.67,14.67,0,0,1-3.55,4.67,16.75,16.75,0,0,1-5.23,3.12,18.06,18.06,0,0,1-6.45,1.12H72.66v3.74H93.07A21.73,21.73,0,0,0,101,52.64a21,21,0,0,0,6.46-3.93,18.31,18.31,0,0,0,4.39-5.86,16.48,16.48,0,0,0,0-14.21,19,19,0,0,0-4.39-5.92,20.25,20.25,0,0,0-6.46-4,21.73,21.73,0,0,0-7.93-1.43H53.29V9.81H93.07A28.93,28.93,0,0,1,104,11.87a29.52,29.52,0,0,1,9,5.61A26.29,26.29,0,0,1,119,25.71a23.33,23.33,0,0,1,2.19,10,22.24,22.24,0,0,1-1.29,7.61,28.08,28.08,0,0,1-3.48,6.73,32.5,32.5,0,0,1,6.26,9.23,27,27,0,0,1,2.38,11.34,25.52,25.52,0,0,1-2.19,10.54,26.73,26.73,0,0,1-6.06,8.6,29.07,29.07,0,0,1-9,5.8A28.2,28.2,0,0,1,96.94,97.7h-32Zm40.8,42.14a10,10,0,0,0-2.07-6.3,8.52,8.52,0,0,0-5.16-3.3,24.86,24.86,0,0,1-2.65.37,25.23,25.23,0,0,1-2.77.12H72.66V79H96.94a8.74,8.74,0,0,0,6.26-2.36,7.88,7.88,0,0,0,2.52-6ZM72.66,28.51V42.85H93.07a9.58,9.58,0,0,0,6.26-2.05,6.32,6.32,0,0,0,2.51-5.06,6.5,6.5,0,0,0-2.51-5.11,9.42,9.42,0,0,0-6.26-2.12Zm44.68,42.14a21.12,21.12,0,0,0-1.68-8.41,21.45,21.45,0,0,0-4.52-6.8,16.24,16.24,0,0,1-3.36,2.24,18,18,0,0,1,4.14,5.68,17,17,0,0,1,1.54,7.29,14.87,14.87,0,0,1-1.29,6.24,15.22,15.22,0,0,1-3.55,5,17.48,17.48,0,0,1-5.22,3.37,16.38,16.38,0,0,1-6.46,1.24H72.66v3.74H96.94a19.77,19.77,0,0,0,7.94-1.56,21.31,21.31,0,0,0,6.45-4.17,19.13,19.13,0,0,0,4.39-6.17,18.22,18.22,0,0,0,1.62-7.67Z" transform="translate(-4.87 23.38)"/></g></svg>